HIERARCHY
ROOT Hips
{
	OFFSET 0.000000 0.000000 0.000000
	CHANNELS 6 Xposition Yposition Zposition Zrotation Yrotation Xrotation 
	JOINT LHipJoint
	{
		OFFSET 0.000000 0.000000 0.000000
		CHANNELS 3 Zrotation Yrotation Xrotation
		JOINT LeftUpLeg
		{
			OFFSET 1.363060 -1.794630 0.839290
			CHANNELS 3 Zrotation Yrotation Xrotation
			JOINT LeftLeg
			{
				OFFSET 2.448110 -6.726130 0.000000
				CHANNELS 3 Zrotation Yrotation Xrotation
				JOINT LeftFoot
				{
					OFFSET 2.562200 -7.039590 0.000000
					CHANNELS 3 Zrotation Yrotation Xrotation
					JOINT LeftToeBase
					{
						OFFSET 0.157640 -0.433110 2.322550
						CHANNELS 3 Zrotation Yrotation Xrotation
						End Site
						{
							OFFSET 0.000000 0.000000 0.000000
						}
					}
				}
			}
		}
	}
	JOINT RHipJoint
	{
		OFFSET 0.000000 0.000000 0.000000
		CHANNELS 3 Zrotation Yrotation Xrotation
		JOINT RightUpLeg
		{
			OFFSET -1.305520 -1.794630 0.839290
			CHANNELS 3 Zrotation Yrotation Xrotation
			JOINT RightLeg
			{
				OFFSET -2.542530 -6.985550 0.000000
				CHANNELS 3 Zrotation Yrotation Xrotation
				JOINT RightFoot
				{
					OFFSET -2.568260 -7.056230 0.000000
					CHANNELS 3 Zrotation Yrotation Xrotation
					JOINT RightToeBase
					{
						OFFSET -0.164730 -0.452590 2.363150
						CHANNELS 3 Zrotation Yrotation Xrotation
						End Site
						{
							OFFSET 0.000000 0.000000 0.000000
						}
					}
				}
			}
		}
	}
	JOINT LowerBack
	{
		OFFSET 0.000000 0.000000 0.000000
		CHANNELS 3 Zrotation Yrotation Xrotation
		JOINT Spine
		{
			OFFSET 0.028270 2.035590 -0.193380
			CHANNELS 3 Zrotation Yrotation Xrotation
			JOINT Spine1
			{
				OFFSET 0.056720 2.048850 -0.042750
				CHANNELS 3 Zrotation Yrotation Xrotation
				JOINT Neck
				{
					OFFSET 0.000000 0.000000 0.000000
					CHANNELS 3 Zrotation Yrotation Xrotation
					JOINT Neck1
					{
						OFFSET -0.054170 1.746240 0.172020
						CHANNELS 3 Zrotation Yrotation Xrotation
						JOINT Head
						{
							OFFSET 0.104070 1.761360 -0.123970
							CHANNELS 3 Zrotation Yrotation Xrotation
							End Site
							{
								OFFSET 0.000000 0.000000 0.000000
							}
						}
					}
				}
				JOINT LeftShoulder
				{
					OFFSET 0.000000 0.000000 0.000000
					CHANNELS 3 Zrotation Yrotation Xrotation
					JOINT LeftArm
					{
						OFFSET 3.362410 1.200890 -0.311210
						CHANNELS 3 Zrotation Yrotation Xrotation
						JOINT LeftForeArm
						{
							OFFSET 4.983000 -0.000000 -0.000000
							CHANNELS 3 Zrotation Yrotation Xrotation
							JOINT LeftHand
							{
								OFFSET 3.483560 -0.000000 -0.000000
								CHANNELS 3 Zrotation Yrotation Xrotation
								JOINT LeftFingerBase
								{
									OFFSET 0.000000 0.000000 0.000000
									CHANNELS 3 Zrotation Yrotation Xrotation
									JOINT LeftHandIndex1
									{
										OFFSET 0.715260 -0.000000 -0.000000
										CHANNELS 3 Zrotation Yrotation Xrotation
										End Site
										{
											OFFSET 0.000000 0.000000 0.000000
										}
									}
								}
								JOINT LThumb
								{
									OFFSET 0.000000 0.000000 0.000000
									CHANNELS 3 Zrotation Yrotation Xrotation
									End Site
									{
										OFFSET 0.000000 0.000000 0.000000
									}
								}
							}
						}
					}
				}
				JOINT RightShoulder
				{
					OFFSET 0.000000 0.000000 0.000000
					CHANNELS 3 Zrotation Yrotation Xrotation
					JOINT RightArm
					{
						OFFSET -3.136600 1.374050 -0.404650
						CHANNELS 3 Zrotation Yrotation Xrotation
						JOINT RightForeArm
						{
							OFFSET -5.241900 -0.000000 -0.000000
							CHANNELS 3 Zrotation Yrotation Xrotation
							JOINT RightHand
							{
								OFFSET -3.444170 -0.000000 -0.000000
								CHANNELS 3 Zrotation Yrotation Xrotation
								JOINT RightFingerBase
								{
									OFFSET 0.000000 0.000000 0.000000
									CHANNELS 3 Zrotation Yrotation Xrotation
									JOINT RightHandIndex1
									{
										OFFSET -0.622530 -0.000000 -0.000000
										CHANNELS 3 Zrotation Yrotation Xrotation
										End Site
										{
											OFFSET 0.000000 0.000000 0.000000
										}
									}
								}
								JOINT RThumb
								{
									OFFSET 0.000000 0.000000 0.000000
									CHANNELS 3 Zrotation Yrotation Xrotation
									End Site
									{
										OFFSET 0.000000 0.000000 0.000000
									}
								}
							}
						}
					}
				}
			}
		}
	}
}
MOTION
Frames: 12
Frame Time: 0.008333
-0.700736 18.431232 5.158243 -2.032621 -0.924162 3.155869 1.810973 4.281526 4.485757 -12.348686 -11.954421 -9.005075 0.739825 6.497294 22.033185 -1.467140 10.010700 -15.284100 7.940100 -16.075000 -52.346800 -2.723616 -4.442631 3.633868 2.842917 1.995800 -1.584315 0.032091 0.835903 1.453247 0.325646 -0.796179 5.888755 0.000000 0.000000 0.000000 0.036477 1.097913 -0.479829 4.887859 -0.888669 37.855797 -1.051209 1.001665 -17.373450 -4.997808 -4.673459 -28.310060 4.268172 -5.685010 32.517688 1.046100 -2.253900 12.383500 3.073726 -3.765079 -1.145567 -67.949220 -38.638225 59.526893 63.326534 -55.468520 -33.391931 0.540760 0.740442 0.733143 23.889588 -35.789577 -14.503100 -7.125000 0.000000 0.000000 -5.552700 -9.013800 6.381900 -5.550429 4.722120 -0.445871 52.054603 34.958790 47.893610 -64.899235 56.197709 -31.617835 0.670343 -1.683197 25.772911 -31.875779 -21.696753 12.595400 7.125000 0.000000 0.000000 -5.105300 -53.345100 1.050000 
-0.705246 18.434370 5.139611 -2.044052 -0.843396 3.262068 1.823392 4.282492 4.476173 -12.296219 -11.977509 -9.236678 0.745759 6.513854 22.058893 -1.474197 9.993201 -15.131862 7.948300 -16.081100 -52.376300 -2.715545 -4.430751 3.624512 2.842377 1.998047 -1.586434 0.031804 0.837087 1.454526 0.325659 -0.794529 5.888595 0.000000 0.000000 0.000000 0.108232 1.045948 -0.350145 4.982224 -0.957966 37.932324 -1.129086 0.959187 -17.200201 -5.009676 -4.686827 -28.356253 4.326904 -5.694270 32.265622 1.048900 -2.247100 12.339500 3.075924 -3.737673 -1.119920 -69.668214 -39.090186 59.549808 61.198812 -55.034704 -31.765164 0.552674 0.722047 1.870454 27.126607 -37.237644 -17.238800 -7.125000 0.000000 0.000000 -4.163200 -11.355800 4.913100 -5.560607 4.694966 -0.459942 53.833511 35.722883 47.307842 -62.913583 55.782916 -30.134982 0.617198 -1.677372 26.328182 -33.355952 -22.337898 13.637000 7.125000 0.000000 0.000000 -6.617500 -54.330700 1.522400 
-0.708286 18.437018 5.124412 -1.983985 -0.826968 3.378493 1.823164 4.282612 4.468863 -12.323822 -11.934983 -9.470069 0.750006 6.531556 22.086480 -1.484595 10.003513 -15.020245 7.978700 -16.103600 -52.486000 -2.718892 -4.419271 3.612240 2.840244 2.000698 -1.586639 0.031630 0.839268 1.456118 0.325991 -0.791888 5.888761 0.000000 0.000000 0.000000 0.194898 0.998870 -0.216525 4.944658 -0.986691 37.991177 -1.183949 0.925143 -17.054207 -5.035860 -4.689136 -28.425187 4.358160 -5.675603 32.110850 1.050500 -2.232500 12.321000 3.089859 -3.709600 -1.088577 -71.432007 -39.461808 59.547300 59.219460 -54.584161 -30.263515 0.561942 0.695965 3.057273 29.876354 -38.527158 -19.730400 -7.125000 0.000000 0.000000 -3.068400 -13.480600 3.703800 -5.553448 4.661123 -0.462254 55.647139 36.427188 46.831910 -61.270274 55.392506 -28.915003 0.571091 -1.676145 26.914044 -34.549402 -22.801947 14.480100 7.125000 0.000000 0.000000 -7.883700 -55.075800 1.959600 
-0.710738 18.438685 5.110487 -1.919973 -0.938488 3.502500 1.812988 4.284094 4.465262 -12.356201 -11.887951 -9.667649 0.750799 6.548318 22.109418 -1.485722 10.011812 -15.018349 7.970000 -16.097100 -52.454400 -2.729511 -4.406565 3.596690 2.836939 2.003682 -1.585103 0.031502 0.842303 1.457970 0.326630 -0.788423 5.889273 0.000000 0.000000 0.000000 0.310429 0.971390 -0.053118 4.823289 -0.965471 38.024234 -1.242188 0.907323 -16.958290 -5.081788 -4.693641 -28.501553 4.424447 -5.665531 32.047268 1.064000 -2.216900 12.324500 3.109800 -3.681806 -1.056337 -73.103512 -39.678182 59.440164 57.724947 -54.221931 -29.131612 0.570507 0.674006 4.084096 31.607317 -39.310039 -21.355900 -7.125000 0.000000 0.000000 -2.409100 -14.825300 2.947500 -5.536645 4.627585 -0.451841 57.516981 37.036899 46.450137 -59.997349 55.067263 -27.986852 0.534001 -1.675072 27.902307 -35.608066 -23.338057 15.347600 7.125000 0.000000 0.000000 -9.048500 -55.904100 2.434900 
-0.713385 18.440450 5.095190 -1.879316 -1.053266 3.656179 1.813021 4.282953 4.457044 -12.374931 -11.906917 -9.875033 0.750804 6.563973 22.130044 -1.496746 10.055257 -15.008031 7.946400 -16.079700 -52.369200 -2.730666 -4.394577 3.583507 2.835639 2.005687 -1.585125 0.031292 0.843952 1.459183 0.326849 -0.786455 5.889468 0.000000 0.000000 0.000000 0.374609 0.945987 0.140081 4.807902 -0.969907 38.030348 -1.304712 0.891567 -16.891375 -5.206445 -4.704065 -28.592489 4.550790 -5.654029 31.983132 1.106200 -2.198400 12.329100 3.118349 -3.651625 -1.024976 -74.739002 -39.848229 59.291996 56.476365 -53.906316 -28.191184 0.575372 0.658167 4.954120 32.984292 -39.719595 -22.600600 -7.125000 0.000000 0.000000 -1.843900 -15.702400 2.275100 -5.528255 4.594610 -0.433745 59.318689 37.570806 46.373871 -58.944915 54.801931 -27.261041 0.503499 -1.656216 28.404673 -37.162828 -24.108300 16.667100 7.125000 0.000000 0.000000 -10.823900 -57.127600 3.241700 
-0.715347 18.443686 5.081560 -1.865218 -1.117011 3.833815 1.822458 4.280202 4.445449 -12.373047 -12.032423 -10.075699 0.747789 6.578476 22.146910 -1.527319 10.180427 -15.019882 7.944900 -16.078600 -52.364000 -2.722822 -4.382995 3.572887 2.835978 2.006910 -1.586312 0.030994 0.844523 1.459891 0.326780 -0.785663 5.889447 0.000000 0.000000 0.000000 0.418643 0.931121 0.324489 4.908328 -0.990701 38.012740 -1.391853 0.881511 -16.834702 -5.472592 -4.760355 -28.656695 4.817197 -5.703459 31.875489 1.198400 -2.199200 12.320600 3.116287 -3.621837 -0.992260 -76.468703 -40.112295 59.291433 55.093025 -53.529106 -27.158963 0.577389 0.639800 5.686406 34.434366 -40.182240 -23.953500 -7.125000 0.000000 0.000000 -1.270400 -16.673900 1.581800 -5.525506 4.554915 -0.414939 60.951927 38.023564 46.804633 -57.959995 54.574404 -26.635109 0.474860 -1.599656 27.205386 -39.760296 -25.170506 18.840800 7.125000 0.000000 0.000000 -13.962300 -58.947800 4.818500 
-0.718779 18.448001 5.069695 -1.874813 -1.269434 4.006523 1.822524 4.279089 4.437494 -12.333739 -12.134606 -10.245347 0.739757 6.588000 22.147834 -1.556332 10.328344 -15.130657 7.940200 -16.075100 -52.346900 -2.722266 -4.371651 3.560422 2.835176 2.008717 -1.586934 0.030776 0.845794 1.460986 0.326952 -0.784057 5.889501 0.000000 0.000000 0.000000 0.481560 0.970856 0.434457 4.970147 -0.935317 38.027573 -1.478351 0.912740 -16.707902 -5.815438 -4.878709 -28.755308 5.167273 -5.844698 31.839898 1.310700 -2.233600 12.355500 3.113253 -3.588103 -0.960179 -78.134349 -40.525287 59.442927 53.596184 -53.077477 -26.053060 0.577037 0.618053 6.331154 36.069740 -40.702779 -25.515800 -7.125000 0.000000 0.000000 -0.640700 -17.790500 0.805800 -5.514017 4.504105 -0.392908 62.516092 38.587032 46.666815 -56.876176 54.267288 -25.887056 0.439996 -1.579734 27.201426 -41.067540 -25.701730 19.993100 7.125000 0.000000 0.000000 -15.652500 -59.874200 5.767400 
-0.723191 18.451041 5.059594 -1.861855 -1.414262 4.146610 1.815350 4.280615 4.430855 -12.325969 -12.108773 -10.430840 0.730422 6.594518 22.135886 -1.617389 10.566450 -15.124809 7.963500 -16.092300 -52.431000 -2.732396 -4.361010 3.546052 2.832656 2.011258 -1.586228 0.030660 0.848165 1.462576 0.327450 -0.781258 5.889784 0.000000 0.000000 0.000000 0.577331 1.016102 0.507023 4.928825 -0.847134 38.065334 -1.549904 0.949101 -16.547300 -6.111074 -4.980855 -28.899811 5.458751 -5.960645 31.937529 1.405600 -2.258700 12.441600 3.118328 -3.555260 -0.928538 -79.670031 -40.960542 59.624149 52.173024 -52.613816 -25.013966 0.573852 0.596298 7.012969 37.801224 -41.102833 -27.147800 -7.125000 0.000000 0.000000 0.056400 -18.850100 -0.071600 -5.491217 4.452819 -0.367032 63.997776 39.143353 46.414919 -55.916481 53.976539 -25.220037 0.408435 -1.571682 27.424894 -41.913205 -26.077003 20.780900 7.125000 0.000000 0.000000 -16.795100 -60.510600 6.458200 
-0.725447 18.452119 5.051357 -1.806218 -1.312986 4.210026 1.824089 4.282883 4.419693 -12.391239 -12.063694 -10.603327 0.725589 6.596200 22.116501 -1.709263 10.851799 -14.868916 7.973800 -16.100000 -52.468400 -2.732729 -4.352751 3.536993 2.831813 2.012821 -1.587001 0.030512 0.849222 1.463519 0.327491 -0.779886 5.889736 0.000000 0.000000 0.000000 0.650807 0.978949 0.674222 4.949234 -0.879515 38.090696 -1.605643 0.921046 -16.452580 -6.247006 -5.007383 -28.954857 5.516849 -5.955096 31.895060 1.432400 -2.255800 12.452600 3.120965 -3.521163 -0.900885 -81.303699 -41.292024 59.743998 50.899237 -52.190258 -24.103583 0.567051 0.573054 7.756920 39.548322 -41.546666 -28.856600 -7.125000 0.000000 0.000000 0.731500 -19.987800 -0.937500 -5.475347 4.398461 -0.344195 65.282729 39.668270 45.913387 -55.122299 53.714348 -24.660662 0.382343 -1.581011 28.626297 -42.123985 -26.258993 21.053400 7.125000 0.000000 0.000000 -17.116500 -60.775300 6.694200 
-0.726820 18.453100 5.043905 -1.786725 -1.181158 4.280934 1.843161 4.282655 4.407302 -12.414733 -12.108010 -10.729714 0.721748 6.591460 22.088320 -1.760306 10.994510 -14.667657 8.053100 -16.158100 -52.753600 -2.720207 -4.346338 3.532600 2.833391 2.013169 -1.590129 0.030308 0.848440 1.463658 0.326987 -0.780445 5.889172 0.000000 0.000000 0.000000 0.676067 0.925672 0.855011 5.088325 -0.968021 38.114362 -1.652129 0.879771 -16.367921 -6.369438 -5.027558 -28.975405 5.495306 -5.922517 31.665571 1.437500 -2.256300 12.396900 3.110713 -3.486385 -0.877193 -82.970548 -41.646701 59.779723 49.747427 -51.797228 -23.298399 0.556330 0.549626 8.352927 41.295753 -42.066866 -30.644900 -7.125000 0.000000 0.000000 1.361900 -21.229200 -1.763000 -5.470804 4.339998 -0.328388 66.337517 40.197093 45.347428 -54.464859 53.483825 -24.199844 0.361407 -1.593718 30.469156 -41.996008 -26.663670 21.289900 7.125000 0.000000 0.000000 -17.032200 -61.233000 6.845600 
-0.727898 18.454571 5.037629 -1.800061 -1.126932 4.366965 1.855561 4.283217 4.398643 -12.389433 -12.187123 -10.818340 0.716308 6.586115 22.058604 -1.782733 11.060862 -14.590472 8.051600 -16.157100 -52.748300 -2.710841 -4.338827 3.526311 2.834342 2.013711 -1.592306 0.030120 0.848134 1.463947 0.326689 -0.780543 5.888807 0.000000 0.000000 0.000000 0.728355 0.894550 1.019813 5.195019 -1.018467 38.126292 -1.710234 0.854400 -16.300278 -6.514971 -5.063234 -29.010623 5.522403 -5.919785 31.479937 1.455200 -2.263800 12.356600 3.099920 -3.453007 -0.855218 -84.513782 -42.019131 59.774256 48.687515 -51.419299 -22.567906 0.544836 0.524197 8.896316 42.944816 -42.668766 -32.423800 -7.125000 0.000000 0.000000 1.895900 -22.532200 -2.478600 -5.461513 4.282671 -0.310856 67.322037 40.669272 45.134084 -53.813830 53.267823 -23.766093 0.339771 -1.586447 31.360808 -42.403363 -27.254446 21.995500 7.125000 0.000000 0.000000 -17.685000 -62.037300 7.454500 
-0.729369 18.456238 5.032628 -1.810375 -1.061916 4.404026 1.864472 4.284541 4.391676 -12.368227 -12.235072 -10.862120 0.711521 6.582380 22.037792 -1.805823 11.140359 -14.552292 8.077200 -16.175700 -52.840100 -2.704272 -4.332657 3.520161 2.835195 2.014073 -1.594269 0.029991 0.847745 1.464144 0.326412 -0.780745 5.888429 0.000000 0.000000 0.000000 0.769831 0.869510 1.201890 5.273232 -1.055693 38.127365 -1.750324 0.834440 -16.265236 -6.507091 -5.042083 -28.988502 5.424812 -5.854705 31.358440 1.429300 -2.248800 12.313900 3.088153 -3.416288 -0.837708 -86.011367 -42.309223 59.725138 47.617019 -51.018437 -21.838964 0.531194 0.490025 9.899092 44.861921 -43.382195 -34.547800 -7.125000 0.000000 0.000000 2.484200 -24.085500 -3.283900 -5.462887 4.241804 -0.285144 68.338660 40.986753 45.078359 -53.206693 53.078945 -23.378081 0.317929 -1.568466 31.409936 -43.257679 -27.671273 22.869100 7.125000 0.000000 0.000000 -18.956200 -62.743100 8.326400 
